<svg width="45" height="72" viewBox="0 0 45 72" fill="none" xmlns="http://www.w3.org/2000/svg">
<path d="M14.911 8.11044C16.9833 5.11162 19.2087 2.01479 22.3762 0.0948181C25.4997 1.96718 27.7033 5.00893 29.746 7.95458C34.5576 15.2428 37.4993 23.9968 36.9059 32.7951C38.4608 34.0985 40.0607 35.3499 41.5925 36.68C43.7914 38.7011 44.8181 41.8537 44.2887 44.7846C43.551 48.487 42.842 52.1977 42.0612 55.89C41.6272 57.7896 39.0572 58.6593 37.5462 57.4457C35.0382 55.3522 32.5926 53.1818 30.0854 51.0857C28.1884 52.9112 25.6685 54.1285 23.0228 54.2751C19.9773 54.4899 16.962 53.2269 14.7541 51.1635C12.9552 52.5406 11.2874 54.1937 9.52986 55.6686C8.68039 56.3513 7.97405 57.2483 6.96872 57.7144C5.41013 58.3831 3.403 57.3852 3.0507 55.7098C2.24812 52.1001 1.40964 48.4969 0.630783 44.8817C-0.00217563 41.8234 1.11887 38.4935 3.47536 36.4432C4.83957 35.2974 6.22282 34.1746 7.61252 33.06C7.99968 32.8563 7.80515 32.3867 7.82712 32.0417C7.41286 23.5528 10.3125 15.1621 14.911 8.11044ZM17.3723 19.2919C15.5524 21.6348 15.7726 25.2638 17.8833 27.3561C20.1179 29.8184 24.3506 29.9082 26.6879 27.5451C28.4921 25.8967 29.1022 23.1292 28.241 20.855C27.4519 18.6626 25.3393 17.0179 23.0158 16.8134C20.8701 16.5664 18.6484 17.5536 17.3723 19.2919Z" fill="#FE4A6B"/>
<path d="M14.0425 58.7391C14.0112 57.6748 15.3359 56.9429 16.2312 57.5061C20.0208 59.4573 24.7313 59.4564 28.5207 57.5051C29.3904 56.9712 30.6793 57.6125 30.7113 58.6481C30.7241 60.9087 30.7267 63.1716 30.7149 65.4329C30.7323 66.5363 29.2746 67.24 28.4178 66.5499C27.7657 65.9748 27.1776 65.3281 26.5502 64.7246C25.5576 66.6583 24.622 68.6214 23.6212 70.5506C23.1406 71.4698 21.6388 71.4761 21.149 70.566C20.1426 68.6331 19.2135 66.6583 18.2016 64.7274C17.5833 65.3363 16.9934 65.9795 16.3421 66.5538C15.489 67.2472 14.0341 66.53 14.046 65.4336C14.0278 63.2028 14.0397 60.9709 14.0425 58.7391Z" fill="#FE4A6B"/>
</svg>
